<svg xmlns="http://www.w3.org/2000/svg" width="256" height="256"><path fill="#1976D2" fill-opacity=".016" fill-rule="evenodd" d="M0 128.004v128.004l128.25-.254 128.25-.254.254-127.75L257.008 0H0v128.004m.485.496c0 70.4.119 99.053.265 63.672.146-35.38.146-92.98 0-128C.604 29.153.485 58.1.485 128.5"/><path fill="#1976D2" fill-opacity=".127" fill-rule="evenodd" d="M121.508 37.143c-1.162 3.087-10.419 37.28-10.161 37.537.521.521 36.002 6.304 36.378 5.929.204-.205.913-2.5 1.574-5.1l1.201-4.727 15.5.143c17.869.165 26.302 1.267 32.69 4.269 7.859 3.694 13.054 13.3 11.717 21.664l-.637 3.982 8.365 5.403c4.601 2.972 11.96 8.408 16.353 12.08 4.394 3.673 8.266 6.677 8.605 6.677.338 0 1.583-3.263 2.765-7.25 7.009-23.648 6.83-38.785-.612-51.75-4.043-7.044-15.991-18.82-22.38-22.057-3.098-1.57-10.073-3.827-15.5-5.016-8.848-1.939-13.761-2.212-47.606-2.651-31.194-.405-37.829-.254-38.252.867M74.2 38.2c-1.663 1.663-1.663 25.937 0 27.6 1.675 1.675 29.925 1.675 31.6 0 1.663-1.663 1.663-25.937 0-27.6-1.675-1.675-29.925-1.675-31.6 0m14.318 3.05c-.231.688-.554 2.375-.719 3.75-.26 2.175-.858 2.54-4.603 2.81-2.368.171-4.468.846-4.667 1.5C76.571 55.747 76.683 56 81.5 56c4.43 0 4.524.065 3.936 2.75-.332 1.513-.776 3.313-.988 4-.262.851.852 1.25 3.495 1.25 3.749 0 3.904-.137 4.557-4 .666-3.941.739-4 4.971-4 3.61 0 4.392-.359 4.899-2.25 1.337-4.99.875-5.75-3.498-5.75h-4.128l.64-4 .64-4H92.48c-1.948 0-3.732.563-3.962 1.25m2.712 107.013a297656.56 297656.56 0 0 1-16.176 60.008l-2.906 10.771 19.596-.271 19.595-.271 6.993-26.254c3.846-14.44 6.723-26.524 6.393-26.854-.33-.33-4.34-1.007-8.912-1.504-7.72-.839-17.103-2.401-20.944-3.486-1.616-.457-.573-5.771 6.17-31.456l.933-3.555 8.264 1.198c4.545.659 12.089 1.359 16.763 1.555l8.499.356 2.223-8.478c1.223-4.662 1.899-8.766 1.501-9.12-.998-.887-32.083-11.905-33.542-11.889-.708.009-6.487 19.705-14.45 49.25"/><path fill="#1976D2" fill-opacity=".548" fill-rule="evenodd" d="M124.076 36.877c-2.181.609-2.907 2.425-7.25 18.136C114.172 64.616 112 72.971 112 73.582c0 .658 6.803 2.237 16.721 3.88 9.197 1.524 17.221 2.962 17.832 3.197.655.251 1.632-1.908 2.384-5.269l1.274-5.694 17.145.599c24.482.855 32.04 2.836 38.383 10.06 3.955 4.505 5.608 9.685 5.025 15.75l-.468 4.872 7.541 4.7c4.147 2.585 11.511 8.005 16.364 12.044l8.824 7.344 1.051-2.765c.578-1.521 2.126-6.9 3.439-11.954 6.691-25.753 3.294-40.666-12.969-56.938-6.423-6.427-9.319-8.556-14.067-10.344-8.512-3.204-17.095-4.826-31.874-6.021-14.062-1.137-60.625-1.257-64.529-.166m-50.041 2.057C73.466 39.998 73 46.041 73 52.363c0 9.116.325 11.819 1.571 13.066 2.311 2.31 28.547 2.31 30.858 0 2.292-2.293 2.292-24.565 0-26.858C104.146 37.288 101.215 37 89.464 37c-13.207 0-14.479.159-15.429 1.934m14.615.824c-.258.416-.784 2.441-1.171 4.5-.68 3.628-.832 3.742-4.965 3.742-3.976 0-4.306.211-4.889 3.125-.959 4.793-.9 4.875 3.489 4.875h4.113l-.675 4.5-.675 4.5h4.003c3.911 0 4.021-.097 4.838-4.25.812-4.131.96-4.264 5.296-4.75 4.262-.478 4.489-.668 5.066-4.25l.605-3.75h-8.647l.617-4.5.617-4.5h-3.577c-1.967 0-3.788.341-4.045.758m15.939 60.992C103.066 105.64 73 217.329 73 218.1c0 .502 8.408.9 19 .9 10.45 0 19-.188 19-.418 0-.231 3.15-12.192 7-26.582s7-26.293 7-26.452c0-.159-2.812-.577-6.25-.928-9.341-.955-25.754-3.841-25.723-4.523.016-.328 1.964-8.247 4.33-17.597 3.729-14.731 4.559-16.988 6.223-16.908 1.056.05 6.55.612 12.209 1.25 5.659.637 12.43 1.158 15.046 1.158h4.756l2.07-8.5c1.138-4.675 1.977-8.5 1.862-8.5-.114 0-7.774-2.7-17.023-6-9.249-3.3-16.939-6-17.091-6-.151 0-.52.787-.82 1.75"/><path fill="#1976D2" fill-opacity=".283" fill-rule="evenodd" d="m134.869 36.69-12.631.368-5.092 18.198c-2.8 10.009-4.766 18.48-4.369 18.825.833.722 34.236 6.277 34.641 5.761.148-.188.678-2.367 1.179-4.842l.909-4.5 13.497-.296c26.31-.576 38.389 2.713 44.747 12.182 2.876 4.283 3.25 5.625 3.25 11.664v6.824l8.25 5.382c4.537 2.961 11.587 8.18 15.665 11.599 4.078 3.418 7.77 5.86 8.204 5.426.434-.434 2.193-6.187 3.909-12.785 2.76-10.611 3.083-13.272 2.795-23.05-.306-10.415-.538-11.486-4.026-18.542-2.607-5.275-5.859-9.667-10.999-14.853-10.32-10.413-18.812-13.925-38.578-15.956-11.546-1.186-43.631-1.921-61.351-1.405m-60.423 2.589c-.281.733-.384 6.932-.228 13.776L74.5 65.5h31v-27l-15.271-.276c-11.991-.217-15.381.01-15.783 1.055M87.384 43c-.632 3.95-.694 4-4.953 4-4.275 0-4.321.038-5.159 4.25l-.846 4.25 4.26.304 4.261.303-.618 4.511-.619 4.511 4.369-.314c4.27-.308 4.387-.411 5.203-4.565.829-4.215.872-4.25 5.152-4.25 4.034 0 4.357-.204 4.941-3.125 1.11-5.551.917-5.875-3.503-5.875h-4.128l.64-4 .64-4h-4.5c-4.477 0-4.504.021-5.14 4m2.107 114.851c-8.706 32.257-16.03 59.222-16.275 59.921-.354 1.007 3.489 1.216 18.416 1l18.863-.272 7.123-26.5 7.122-26.5-7.535-.717c-8.521-.811-23.187-3.432-24.053-4.298-.315-.315 1.384-8.483 3.776-18.152l4.348-17.579 5.112.647c10.252 1.296 27.855 2.689 28.304 2.24.438-.438 4.255-14.457 4.291-15.761.009-.342-3.471-1.856-7.733-3.365a3481.518 3481.518 0 0 1-16.84-6.029l-9.091-3.284-15.828 58.649"/></svg>